<?xml version="1.0" encoding="utf-8"?>
<!DOCTYPE svg PUBLIC "-//W3C//DTD SVG 1.1//EN" "http://www.w3.org/Graphics/SVG/1.1/DTD/svg11.dtd">
<svg version="1.1" id="svg3962" xmlns:svg="http://www.w3.org/2000/svg" xmlns="http://www.w3.org/2000/svg" x="0px" y="0px" width="286px" height="51px" viewBox="0 0 286 51" enable-background="new 0 0 286 51" xml:space="preserve">
<g id="layer1" transform="matrix(0.59886379,0,0,0.59886379,-67.277512,-62.322111)">
	<g id="g5355" transform="translate(-121.92699,-565.60159)">
		<path id="path3033-6" fill="#666666" d="M269.359,690.686 c0-12.234-4.894-19.575-17.128-19.575h-17.127v68.511h9.787v-31.809h7.34C263.28,707.813,269.359,701.887,269.359,690.686 M259.571,690.686c0,8.181-3.976,9.787-12.233,9.787h-2.447v-22.021h2.447C257.048,678.452,259.571,681.166,259.571,690.686"/>
		<path id="path3035-8" fill="#666666" d="M285.724,689.998 c-9.29,0-14.566,6.117-14.68,15.368h9.787c0-4.281,0.88-7.799,4.894-7.799c4.091,0,4.894,3.479,4.894,7.799v3.517 c-9.443,3.708-19.574,7.188-19.574,19.917c0,5.698,4.129,11.509,9.787,11.509c5.659,0,7.838-4.168,9.787-8.03l1.3,7.341h9.749 c-0.956-3.48-1.261-7.227-1.261-12.233v-22.022C300.406,696.268,295.015,689.998,285.724,689.998 M290.618,715.154v13.533 c-1.032,1.376-2.523,3.594-4.894,3.594c-3.517,0-4.894-2.409-4.894-6.079C280.831,720.276,286.757,717.753,290.618,715.154"/>
		<path id="path3037-0" fill="#666666" d="M314.93,715.154 c0-6.193-0.994-17.548,4.894-17.548c4.511,0,4.894,5.619,4.894,10.207h9.787c0-11.125-3.479-17.815-14.681-17.815 c-13.267,0-14.68,11.928-14.68,25.156c0,13.228,1.414,25.157,14.68,25.157c10.896,0,14.681-7.074,14.681-17.817h-9.787 c0,4.895,0,9.787-4.894,9.787C313.821,732.281,314.93,721.31,314.93,715.154"/>
		<path id="path3039-8" fill="#666666" d="M350.256,671.111h-9.787v68.511h9.787 v-17.129l4.894-6.536l7.341,23.665h9.787l-10.972-31.847l10.972-17.089h-9.787l-12.234,18.083V671.111"/>
		<path id="path3041-6" fill="#666666" d="M388.869,689.998 c-9.29,0-14.565,6.117-14.68,15.368h9.787c0-4.281,0.879-7.799,4.893-7.799c4.091,0,4.894,3.479,4.894,7.799v3.517 c-9.443,3.708-19.574,7.188-19.574,19.917c0,5.698,4.129,11.509,9.787,11.509c5.658,0,7.837-4.168,9.787-8.03l1.3,7.341h9.748 c-0.956-3.48-1.261-7.227-1.261-12.233v-22.022C403.55,696.268,398.16,689.998,388.869,689.998 M393.763,715.154v13.533 c-1.032,1.376-2.523,3.594-4.894,3.594c-3.517,0-4.893-2.409-4.893-6.079C383.976,720.276,389.901,717.753,393.763,715.154"/>
		<path id="path3045-4" fill="#666666" d="M457.265,717.601v-2.448h19.574v-1.146 c0-13.266-1.911-24.009-14.681-24.009c-12.768,0-14.68,10.743-14.68,24.009c0,13.877,1.3,26.303,14.643,26.303 c10.666,0,14.719-6.539,14.719-17.817h-9.749c0,4.933,0,9.787-4.932,9.787C456.653,732.281,457.265,723.26,457.265,717.601 M467.052,710.26h-9.787c0-5.046-0.153-12.233,4.893-12.233C467.167,698.026,467.052,705.175,467.052,710.26"/>
		<path id="path3047-1" fill="#666666" d="M532.963,717.601v-2.448h-9.787v2.448 c0,7.491-0.956,14.68-8.449,14.68c-7.456,0-9.023-7.188-9.023-14.68v-24.469c0-8.334,0.841-14.681,9.023-14.681 c8.181,0,8.449,6.347,8.449,14.681h9.787c0-13.764-4.435-22.71-18.236-22.71c-14.72,0-18.81,10.437-18.81,25.157v19.536 c0,14.719,4.09,25.194,18.81,25.194C528.452,740.31,532.963,731.211,532.963,717.601"/>
		<path id="path3049-3" fill="#666666" d="M552.842,740.31 c11.01,0,14.681-6.96,14.681-17.817v-14.68c0-10.857-3.671-17.815-14.681-17.815s-14.681,6.958-14.681,17.815v14.68 C538.161,733.351,541.832,740.31,552.842,740.31 M552.842,698.026c4.894,0,4.894,4.894,4.894,9.787v14.68 c0,4.895,0,9.787-4.894,9.787c-4.894,0-4.894-4.892-4.894-9.787v-14.68C547.949,702.919,547.949,698.026,552.842,698.026"/>
		<path id="path3051-6" fill="#666666" d="M585.415,695.961v-5.275h-9.787v48.936 h9.787v-38.729c1.605-1.338,3.364-2.867,6.117-2.867c3.173,0,3.671,1.796,3.671,4.893v36.703h9.787v-41.711 c0-4.282-2.715-7.914-7.035-7.914C592.106,689.998,588.856,692.826,585.415,695.961"/>
		<path id="path3053-2" fill="#666666" d="M632.67,739.85v-7.951 c-0.881,0.153-2.371,0.382-3.287,0.382c-3.519,0-4.054-2.218-4.054-5.696v-28.559h7.341v-7.34h-7.341v-17.128h-9.787v17.128 h-4.892v7.34h4.892v30.433c0.078,7.723,3.212,11.852,11.089,11.852C628.999,740.31,630.224,740.157,632.67,739.85"/>
		<path id="path3055-5" fill="#666666" d="M648.574,697.223v-6.537h-9.787v48.936 h9.787V706.59c0-4.053,2.753-6.691,6.805-6.691c1.911,0,3.976,0.497,5.429,1.071v-10.82c-0.726-0.077-1.071-0.152-1.567-0.152 C654.193,689.998,650.332,693.821,648.574,697.223"/>
		<path id="path3057-1" fill="#666666" d="M678.241,740.31 c11.01,0,14.679-6.96,14.679-17.817v-14.68c0-10.857-3.669-17.815-14.679-17.815c-11.01,0-14.681,6.958-14.681,17.815v14.68 C663.56,733.351,667.231,740.31,678.241,740.31 M678.241,698.026c4.894,0,4.894,4.894,4.894,9.787v14.68 c0,4.895,0,9.787-4.894,9.787c-4.894,0-4.894-4.892-4.894-9.787v-14.68C673.347,702.919,673.347,698.026,678.241,698.026"/>
		<path id="path3059-8" fill="#666666" d="M711.005,739.622v-68.511h-9.787v68.511 H711.005"/>
		<path id="path3010-3" fill="#666666" d="M421.156,689.719 c-12.233,0-12.093,14.779-12.093,27.625c0,9.902,2.431,22.688,12.219,22.688c4.435,0,7.557-2.692,9.812-5.063V740v0.969 c0,3.402-1.337,5.362-4.875,5.717c-4.89,0.496-13.583-3.291-14.156-3.405v6.97c1.3,0.496,8.732,4.274,16.594,3.78 c7.531,0,12.219-4.36,12.219-11.969V740v-47.157v-2.437h-9.782v2.437v2.469C428.532,692.598,425.82,689.719,421.156,689.719z M424.625,697.25c2.676,0,4.672,1.429,6.468,2.5v30.28c-2.14,1.223-4.629,2.001-7.344,2.001c-5.925,0-4.906-12.865-4.906-19.594 C418.844,706.359,418.738,697.25,424.625,697.25z"/>
	</g>
</g>
</svg>
