<?xml version="1.0" encoding="UTF-8" standalone="no"?>
<!-- Created with Inkscape (http://www.inkscape.org/) -->

<svg
   xmlns:dc="http://purl.org/dc/elements/1.1/"
   xmlns:cc="http://creativecommons.org/ns#"
   xmlns:rdf="http://www.w3.org/1999/02/22-rdf-syntax-ns#"
   xmlns:svg="http://www.w3.org/2000/svg"
   xmlns="http://www.w3.org/2000/svg"
   xmlns:xlink="http://www.w3.org/1999/xlink"
   xmlns:sodipodi="http://sodipodi.sourceforge.net/DTD/sodipodi-0.dtd"
   xmlns:inkscape="http://www.inkscape.org/namespaces/inkscape"
   version="1.1"
   width="286"
   height="51"
   id="svg3962"
   inkscape:version="0.48.4 r9939"
   sodipodi:docname="logo.svg">
  <sodipodi:namedview
     pagecolor="#ffffff"
     bordercolor="#666666"
     borderopacity="1"
     objecttolerance="10"
     gridtolerance="10"
     guidetolerance="10"
     inkscape:pageopacity="0"
     inkscape:pageshadow="2"
     inkscape:window-width="1225"
     inkscape:window-height="778"
     id="namedview3271"
     showgrid="false"
     inkscape:zoom="3.6490581"
     inkscape:cx="128.98741"
     inkscape:cy="42.355743"
     inkscape:window-x="0"
     inkscape:window-y="27"
     inkscape:window-maximized="0"
     inkscape:current-layer="svg3962" />
  <defs
     id="defs3964">
    <linearGradient
       x1="476.24561"
       y1="767.49622"
       x2="476.24561"
       y2="652.08875"
       id="linearGradient5377"
       xlink:href="#linearGradient5371"
       gradientUnits="userSpaceOnUse" />
    <linearGradient
       id="linearGradient5371">
      <stop
         id="stop5373"
         style="stop-color:#000000;stop-opacity:1"
         offset="0" />
      <stop
         id="stop5375"
         style="stop-color:#000000;stop-opacity:0.44295302"
         offset="1" />
    </linearGradient>
    <linearGradient
       x1="476.24561"
       y1="767.49622"
       x2="476.24561"
       y2="512.84534"
       id="linearGradient5379"
       xlink:href="#linearGradient5371"
       gradientUnits="userSpaceOnUse" />
    <linearGradient
       id="linearGradient3849">
      <stop
         id="stop3851"
         style="stop-color:#000000;stop-opacity:1"
         offset="0" />
      <stop
         id="stop3853"
         style="stop-color:#000000;stop-opacity:0.44295302"
         offset="1" />
    </linearGradient>
    <linearGradient
       x1="476.24561"
       y1="767.49622"
       x2="476.24561"
       y2="512.84534"
       id="linearGradient5381"
       xlink:href="#linearGradient5371"
       gradientUnits="userSpaceOnUse" />
    <linearGradient
       id="linearGradient3856">
      <stop
         id="stop3858"
         style="stop-color:#000000;stop-opacity:1"
         offset="0" />
      <stop
         id="stop3860"
         style="stop-color:#000000;stop-opacity:0.44295302"
         offset="1" />
    </linearGradient>
    <linearGradient
       x1="476.24561"
       y1="767.49622"
       x2="476.24561"
       y2="512.84534"
       id="linearGradient5383"
       xlink:href="#linearGradient5371"
       gradientUnits="userSpaceOnUse" />
    <linearGradient
       id="linearGradient3863">
      <stop
         id="stop3865"
         style="stop-color:#000000;stop-opacity:1"
         offset="0" />
      <stop
         id="stop3867"
         style="stop-color:#000000;stop-opacity:0.44295302"
         offset="1" />
    </linearGradient>
    <linearGradient
       x1="476.24561"
       y1="767.49622"
       x2="476.24561"
       y2="512.84534"
       id="linearGradient5385"
       xlink:href="#linearGradient5371"
       gradientUnits="userSpaceOnUse" />
    <linearGradient
       id="linearGradient3870">
      <stop
         id="stop3872"
         style="stop-color:#000000;stop-opacity:1"
         offset="0" />
      <stop
         id="stop3874"
         style="stop-color:#000000;stop-opacity:0.44295302"
         offset="1" />
    </linearGradient>
    <linearGradient
       x1="476.24561"
       y1="767.49622"
       x2="476.24561"
       y2="512.84534"
       id="linearGradient5387"
       xlink:href="#linearGradient5371"
       gradientUnits="userSpaceOnUse" />
    <linearGradient
       id="linearGradient3877">
      <stop
         id="stop3879"
         style="stop-color:#000000;stop-opacity:1"
         offset="0" />
      <stop
         id="stop3881"
         style="stop-color:#000000;stop-opacity:0.44295302"
         offset="1" />
    </linearGradient>
    <linearGradient
       x1="476.24561"
       y1="767.49622"
       x2="476.24561"
       y2="512.84534"
       id="linearGradient5389"
       xlink:href="#linearGradient5371"
       gradientUnits="userSpaceOnUse" />
    <linearGradient
       id="linearGradient3884">
      <stop
         id="stop3886"
         style="stop-color:#000000;stop-opacity:1"
         offset="0" />
      <stop
         id="stop3888"
         style="stop-color:#000000;stop-opacity:0.44295302"
         offset="1" />
    </linearGradient>
    <linearGradient
       x1="476.24561"
       y1="767.49622"
       x2="476.24561"
       y2="512.84534"
       id="linearGradient5391"
       xlink:href="#linearGradient5371"
       gradientUnits="userSpaceOnUse" />
    <linearGradient
       id="linearGradient3891">
      <stop
         id="stop3893"
         style="stop-color:#000000;stop-opacity:1"
         offset="0" />
      <stop
         id="stop3895"
         style="stop-color:#000000;stop-opacity:0.44295302"
         offset="1" />
    </linearGradient>
    <linearGradient
       x1="476.24561"
       y1="767.49622"
       x2="476.24561"
       y2="512.84534"
       id="linearGradient5393"
       xlink:href="#linearGradient5371"
       gradientUnits="userSpaceOnUse" />
    <linearGradient
       id="linearGradient3898">
      <stop
         id="stop3900"
         style="stop-color:#000000;stop-opacity:1"
         offset="0" />
      <stop
         id="stop3902"
         style="stop-color:#000000;stop-opacity:0.44295302"
         offset="1" />
    </linearGradient>
    <linearGradient
       x1="476.24561"
       y1="767.49622"
       x2="476.24561"
       y2="512.84534"
       id="linearGradient5395"
       xlink:href="#linearGradient5371"
       gradientUnits="userSpaceOnUse" />
    <linearGradient
       id="linearGradient3905">
      <stop
         id="stop3907"
         style="stop-color:#000000;stop-opacity:1"
         offset="0" />
      <stop
         id="stop3909"
         style="stop-color:#000000;stop-opacity:0.44295302"
         offset="1" />
    </linearGradient>
    <linearGradient
       x1="476.24561"
       y1="767.49622"
       x2="476.24561"
       y2="512.84534"
       id="linearGradient5397"
       xlink:href="#linearGradient5371"
       gradientUnits="userSpaceOnUse" />
    <linearGradient
       id="linearGradient3912">
      <stop
         id="stop3914"
         style="stop-color:#000000;stop-opacity:1"
         offset="0" />
      <stop
         id="stop3916"
         style="stop-color:#000000;stop-opacity:0.44295302"
         offset="1" />
    </linearGradient>
    <linearGradient
       x1="476.24561"
       y1="767.49622"
       x2="476.24561"
       y2="512.84534"
       id="linearGradient5399"
       xlink:href="#linearGradient5371"
       gradientUnits="userSpaceOnUse" />
    <linearGradient
       id="linearGradient3919">
      <stop
         id="stop3921"
         style="stop-color:#000000;stop-opacity:1"
         offset="0" />
      <stop
         id="stop3923"
         style="stop-color:#000000;stop-opacity:0.44295302"
         offset="1" />
    </linearGradient>
    <linearGradient
       x1="476.24561"
       y1="767.49622"
       x2="476.24561"
       y2="512.84534"
       id="linearGradient5401"
       xlink:href="#linearGradient5371"
       gradientUnits="userSpaceOnUse" />
    <linearGradient
       id="linearGradient3926">
      <stop
         id="stop3928"
         style="stop-color:#000000;stop-opacity:1"
         offset="0" />
      <stop
         id="stop3930"
         style="stop-color:#000000;stop-opacity:0.44295302"
         offset="1" />
    </linearGradient>
    <linearGradient
       x1="476.24561"
       y1="767.49622"
       x2="476.24561"
       y2="512.84534"
       id="linearGradient5403"
       xlink:href="#linearGradient5371"
       gradientUnits="userSpaceOnUse" />
    <linearGradient
       id="linearGradient3933">
      <stop
         id="stop3935"
         style="stop-color:#000000;stop-opacity:1"
         offset="0" />
      <stop
         id="stop3937"
         style="stop-color:#000000;stop-opacity:0.44295302"
         offset="1" />
    </linearGradient>
    <linearGradient
       x1="476.24561"
       y1="767.49622"
       x2="476.24561"
       y2="512.84534"
       id="linearGradient5405"
       xlink:href="#linearGradient5371"
       gradientUnits="userSpaceOnUse" />
    <linearGradient
       id="linearGradient3940">
      <stop
         id="stop3942"
         style="stop-color:#000000;stop-opacity:1"
         offset="0" />
      <stop
         id="stop3944"
         style="stop-color:#000000;stop-opacity:0.44295302"
         offset="1" />
    </linearGradient>
  </defs>
  <metadata
     id="metadata3967">
    <rdf:RDF>
      <cc:Work
         rdf:about="">
        <dc:format>image/svg+xml</dc:format>
        <dc:type
           rdf:resource="http://purl.org/dc/dcmitype/StillImage" />
        <dc:title />
      </cc:Work>
    </rdf:RDF>
  </metadata>
  <g
     transform="matrix(0.59886379,0,0,0.59886379,-67.277512,-62.322111)"
     id="layer1">
    <g
       transform="translate(-121.92699,-565.60159)"
       id="g5355"
       style="fill:url(#linearGradient5377);fill-opacity:1">
      <path
         d="m 269.35893,690.68575 c 0,-12.23397 -4.89361,-19.57434 -17.12755,-19.57434 l -17.12755,0 0,68.5102 9.78717,0 0,-31.80831 7.34038,0 c 11.04879,0 17.12755,-5.92584 17.12755,-17.12755 m -9.78717,0 c 0,8.18145 -3.97604,9.78717 -12.23397,9.78717 l -2.44679,0 0,-22.02114 2.44679,0 c 9.7107,0 12.23397,2.71442 12.23397,12.23397"
         id="path3033-6"
         style="font-size:40px;font-style:normal;font-variant:normal;font-weight:normal;font-stretch:normal;line-height:125%;letter-spacing:0px;word-spacing:0px;fill:url(#linearGradient5379);fill-opacity:1;stroke:none;font-family:Oswald;-inkscape-font-specification:Oswald"
         inkscape:connector-curvature="0" />
      <path
         d="m 285.72472,689.99757 c -9.29016,0 -14.56607,6.11701 -14.68075,15.36894 l 9.78717,0 c 0,-4.28189 0.87932,-7.79917 4.89358,-7.79917 4.09073,0 4.89359,3.47905 4.89359,7.79917 l 0,3.51725 c -9.44309,3.70842 -19.57434,7.18746 -19.57434,19.91842 0,5.69645 4.12897,11.50758 9.78717,11.50758 5.6582,0 7.83737,-4.1672 9.78717,-8.02853 l 1.29985,7.34038 9.74895,0 c -0.95578,-3.47905 -1.26163,-7.2257 -1.26163,-12.23397 l 0,-22.02113 c 0,-9.09902 -5.3906,-15.36894 -14.68076,-15.36894 m 4.89359,25.15611 0,13.53382 c -1.03225,1.37631 -2.52327,3.59373 -4.89359,3.59373 -3.51727,0 -4.89358,-2.40857 -4.89358,-6.07876 0,-5.92582 5.92582,-8.44909 9.78717,-11.04879"
         id="path3035-8"
         style="font-size:40px;font-style:normal;font-variant:normal;font-weight:normal;font-stretch:normal;line-height:125%;letter-spacing:0px;word-spacing:0px;fill:url(#linearGradient5381);fill-opacity:1;stroke:none;font-family:Oswald;-inkscape-font-specification:Oswald"
         inkscape:connector-curvature="0" />
      <path
         d="m 314.93045,715.15368 c 0,-6.19344 -0.99401,-17.54811 4.89358,-17.54811 4.51128,0 4.89359,5.61999 4.89359,10.20773 l 9.78717,0 c 0,-11.12526 -3.47905,-17.81573 -14.68076,-17.81573 -13.2662,0 -14.68076,11.92814 -14.68076,25.15611 0,13.22795 1.41456,25.15608 14.68076,25.15608 10.89586,0 14.68076,-7.07278 14.68076,-17.8157 l -9.78717,0 c 0,4.89356 0,9.78717 -4.89359,9.78717 -6.00228,0 -4.89358,-10.97236 -4.89358,-17.12755"
         id="path3037-0"
         style="font-size:40px;font-style:normal;font-variant:normal;font-weight:normal;font-stretch:normal;line-height:125%;letter-spacing:0px;word-spacing:0px;fill:url(#linearGradient5383);fill-opacity:1;stroke:none;font-family:Oswald;-inkscape-font-specification:Oswald"
         inkscape:connector-curvature="0" />
      <path
         d="m 350.25601,671.11141 -9.78717,0 0,68.5102 9.78717,0 0,-17.12755 4.89358,-6.53754 7.34038,23.66509 9.78717,0 -10.97232,-31.84656 10.97232,-17.0893 -9.78717,0 -12.23396,18.08332 0,-37.65766"
         id="path3039-8"
         style="font-size:40px;font-style:normal;font-variant:normal;font-weight:normal;font-stretch:normal;line-height:125%;letter-spacing:0px;word-spacing:0px;fill:url(#linearGradient5385);fill-opacity:1;stroke:none;font-family:Oswald;-inkscape-font-specification:Oswald"
         inkscape:connector-curvature="0" />
      <path
         d="m 388.86947,689.99757 c -9.29016,0 -14.56607,6.11701 -14.68075,15.36894 l 9.78717,0 c 0,-4.28189 0.87932,-7.79917 4.89358,-7.79917 4.09073,0 4.89359,3.47905 4.89359,7.79917 l 0,3.51725 c -9.4431,3.70842 -19.57434,7.18746 -19.57434,19.91842 0,5.69645 4.12897,11.50758 9.78717,11.50758 5.6582,0 7.83737,-4.1672 9.78717,-8.02853 l 1.29985,7.34038 9.74894,0 c -0.95577,-3.47905 -1.26162,-7.2257 -1.26162,-12.23397 l 0,-22.02113 c 0,-9.09902 -5.3906,-15.36894 -14.68076,-15.36894 m 4.89359,25.15611 0,13.53382 c -1.03225,1.37631 -2.52327,3.59373 -4.89359,3.59373 -3.51727,0 -4.89358,-2.40857 -4.89358,-6.07876 0,-5.92582 5.92582,-8.44909 9.78717,-11.04879"
         id="path3041-6"
         style="font-size:40px;font-style:normal;font-variant:normal;font-weight:normal;font-stretch:normal;line-height:125%;letter-spacing:0px;word-spacing:0px;fill:url(#linearGradient5387);fill-opacity:1;stroke:none;font-family:Oswald;-inkscape-font-specification:Oswald"
         inkscape:connector-curvature="0" />
      <path
         d="m 457.26497,717.60047 0,-2.44679 19.57434,0 0,-1.14694 c 0,-13.2662 -1.91157,-24.00917 -14.68076,-24.00917 -12.76918,0 -14.68075,10.74297 -14.68075,24.00917 0,13.87789 1.29987,26.30302 14.64252,26.30302 10.66649,0 14.71899,-6.53754 14.71899,-17.8157 l -9.74894,0 c 0,4.93179 0,9.78717 -4.93182,9.78717 -5.50526,0 -4.89358,-9.02256 -4.89358,-14.68076 m 9.78717,-7.34038 -9.78717,0 c 0,-5.04652 -0.15288,-12.23396 4.89358,-12.23396 5.00828,0 4.89359,7.14921 4.89359,12.23396"
         id="path3045-4"
         style="font-size:40px;font-style:normal;font-variant:normal;font-weight:normal;font-stretch:normal;line-height:125%;letter-spacing:0px;word-spacing:0px;fill:url(#linearGradient5389);fill-opacity:1;stroke:none;font-family:Oswald;-inkscape-font-specification:Oswald"
         inkscape:connector-curvature="0" />
      <path
         d="m 532.96263,717.60047 0,-2.44679 -9.78717,0 0,2.44679 c 0,7.49329 -0.9558,14.68076 -8.44909,14.68076 -7.45506,0 -9.02254,-7.18747 -9.02254,-14.68076 l 0,-24.46793 c 0,-8.33438 0.84109,-14.68076 9.02254,-14.68076 8.18147,0 8.44909,6.34638 8.44909,14.68076 l 9.78717,0 c 0,-13.76321 -4.43482,-22.70931 -18.23626,-22.70931 -14.71897,0 -18.80971,10.43712 -18.80971,25.1561 l 0,19.5361 c 0,14.71898 4.09074,25.19433 18.80971,25.19433 13.72496,0 18.23626,-9.09903 18.23626,-22.70929"
         id="path3047-1"
         style="font-size:40px;font-style:normal;font-variant:normal;font-weight:normal;font-stretch:normal;line-height:125%;letter-spacing:0px;word-spacing:0px;fill:url(#linearGradient5391);fill-opacity:1;stroke:none;font-family:Oswald;-inkscape-font-specification:Oswald"
         inkscape:connector-curvature="0" />
      <path
         d="m 552.84282,740.30976 c 11.01055,0 14.68076,-6.95807 14.68076,-17.8157 l 0,-14.68076 c 0,-10.85763 -3.67021,-17.81573 -14.68076,-17.81573 -11.01056,0 -14.68075,6.9581 -14.68075,17.81573 l 0,14.68076 c 0,10.85763 3.67019,17.8157 14.68075,17.8157 m 0,-42.28363 c 4.89359,0 4.89359,4.89358 4.89359,9.78717 l 0,14.68076 c 0,4.89356 0,9.78717 -4.89359,9.78717 -4.89358,0 -4.89358,-4.89361 -4.89358,-9.78717 l 0,-14.68076 c 0,-4.89359 0,-9.78717 4.89358,-9.78717"
         id="path3049-3"
         style="font-size:40px;font-style:normal;font-variant:normal;font-weight:normal;font-stretch:normal;line-height:125%;letter-spacing:0px;word-spacing:0px;fill:url(#linearGradient5393);fill-opacity:1;stroke:none;font-family:Oswald;-inkscape-font-specification:Oswald"
         inkscape:connector-curvature="0" />
      <path
         d="m 585.41574,695.96164 0,-5.27589 -9.78717,0 0,48.93586 9.78717,0 0,-38.72815 c 1.60573,-1.33809 3.36436,-2.86733 6.11699,-2.86733 3.17319,0 3.67019,1.79686 3.67019,4.89358 l 0,36.7019 9.78717,0 0,-41.71019 c 0,-4.28189 -2.71442,-7.91385 -7.03453,-7.91385 -5.84934,0 -9.09902,2.82912 -12.53982,5.96407"
         id="path3051-6"
         style="font-size:40px;font-style:normal;font-variant:normal;font-weight:normal;font-stretch:normal;line-height:125%;letter-spacing:0px;word-spacing:0px;fill:url(#linearGradient5395);fill-opacity:1;stroke:none;font-family:Oswald;-inkscape-font-specification:Oswald"
         inkscape:connector-curvature="0" />
      <path
         d="m 632.66944,739.85098 0,-7.95208 c -0.87932,0.15288 -2.37033,0.38233 -3.28788,0.38233 -3.51726,0 -4.0525,-2.21742 -4.0525,-5.69645 l 0,-28.55865 7.34038,0 0,-7.34038 -7.34038,0 0,-17.12755 -9.78717,0 0,17.12755 -4.89358,0 0,7.34038 4.89358,0 0,30.43197 c 0.0765,7.72269 3.21143,11.85166 11.08703,11.85166 2.37033,0 3.59373,-0.15287 6.04052,-0.45878"
         id="path3053-2"
         style="font-size:40px;font-style:normal;font-variant:normal;font-weight:normal;font-stretch:normal;line-height:125%;letter-spacing:0px;word-spacing:0px;fill:url(#linearGradient5397);fill-opacity:1;stroke:none;font-family:Oswald;-inkscape-font-specification:Oswald"
         inkscape:connector-curvature="0" />
      <path
         d="m 648.5736,697.22327 0,-6.53752 -9.78718,0 0,48.93586 9.78718,0 0,-33.03171 c 0,-4.05249 2.75264,-6.69045 6.80513,-6.69045 1.91155,0 3.97604,0.49699 5.42883,1.07046 l 0,-10.8194 c -0.72638,-0.0765 -1.07048,-0.15288 -1.56747,-0.15288 -5.04651,0 -8.90786,3.82313 -10.66649,7.22569"
         id="path3055-5"
         style="font-size:40px;font-style:normal;font-variant:normal;font-weight:normal;font-stretch:normal;line-height:125%;letter-spacing:0px;word-spacing:0px;fill:url(#linearGradient5399);fill-opacity:1;stroke:none;font-family:Oswald;-inkscape-font-specification:Oswald"
         inkscape:connector-curvature="0" />
      <path
         d="m 678.24096,740.30976 c 11.01055,0 14.68076,-6.95807 14.68076,-17.8157 l 0,-14.68076 c 0,-10.85763 -3.67021,-17.81573 -14.68076,-17.81573 -11.01057,0 -14.68076,6.9581 -14.68076,17.81573 l 0,14.68076 c 0,10.85763 3.67019,17.8157 14.68076,17.8157 m 0,-42.28363 c 4.89358,0 4.89358,4.89358 4.89358,9.78717 l 0,14.68076 c 0,4.89356 0,9.78717 -4.89358,9.78717 -4.89359,0 -4.89359,-4.89361 -4.89359,-9.78717 l 0,-14.68076 c 0,-4.89359 0,-9.78717 4.89359,-9.78717"
         id="path3057-1"
         style="font-size:40px;font-style:normal;font-variant:normal;font-weight:normal;font-stretch:normal;line-height:125%;letter-spacing:0px;word-spacing:0px;fill:url(#linearGradient5401);fill-opacity:1;stroke:none;font-family:Oswald;-inkscape-font-specification:Oswald"
         inkscape:connector-curvature="0" />
      <path
         d="m 711.00504,739.62161 0,-68.5102 -9.78717,0 0,68.5102 9.78717,0"
         id="path3059-8"
         style="font-size:40px;font-style:normal;font-variant:normal;font-weight:normal;font-stretch:normal;line-height:125%;letter-spacing:0px;word-spacing:0px;fill:url(#linearGradient5403);fill-opacity:1;stroke:none;font-family:Oswald;-inkscape-font-specification:Oswald"
         inkscape:connector-curvature="0" />
      <path
         d="m 421.15625,689.71875 c -12.23394,0 -12.09375,14.77934 -12.09375,27.625 0,9.90184 2.4316,22.6875 12.21875,22.6875 4.4348,0 7.55685,-2.69217 9.8125,-5.0625 l 0,5.03125 0,0.96875 c 0,3.40257 -1.33754,5.36114 -4.875,5.71875 -4.88992,0.49433 -13.58278,-3.2915 -14.15625,-3.40625 l 0,6.96875 c 1.29986,0.49701 8.73247,4.27558 16.59375,3.78125 7.53152,0 12.21875,-4.36075 12.21875,-11.96875 l 0,-2.0625 0,-47.15625 0,-2.4375 -9.78125,0 0,2.4375 0,2.46875 c -2.5615,-2.71442 -5.2733,-5.59375 -9.9375,-5.59375 z M 424.625,697.25 c 2.67617,0 4.67188,1.42954 6.46875,2.5 l 0,30.28125 c -2.14094,1.2234 -4.62935,2 -7.34375,2 -5.92582,0 -4.90625,-12.86509 -4.90625,-19.59375 0,-6.07876 -0.10636,-15.1875 5.78125,-15.1875 z"
         id="path3010-3"
         style="font-size:40px;font-style:normal;font-variant:normal;font-weight:normal;font-stretch:normal;text-align:start;line-height:125%;letter-spacing:0px;word-spacing:0px;writing-mode:lr-tb;text-anchor:start;fill:url(#linearGradient5405);fill-opacity:1;stroke:none;font-family:Oswald;-inkscape-font-specification:Oswald"
         inkscape:connector-curvature="0" />
    </g>
  </g>
</svg>
