<?xml version="1.0" encoding="UTF-8" standalone="no"?>
<!DOCTYPE svg PUBLIC "-//W3C//DTD SVG 1.1//EN" "http://www.w3.org/Graphics/SVG/1.1/DTD/svg11.dtd">
<svg width="100%" height="100%" viewBox="0 0 512 512" version="1.1" xmlns="http://www.w3.org/2000/svg" xmlns:xlink="http://www.w3.org/1999/xlink" xml:space="preserve" xmlns:serif="http://www.serif.com/" style="fill-rule:evenodd;clip-rule:evenodd;stroke-linejoin:round;stroke-miterlimit:1.41421;">
    <g transform="matrix(0.903226,0,0,0.903226,-895.691,-915.24)">
        <g id="Windows-Linux--Filled-" serif:id="Windows/Linux (Filled)" transform="matrix(1.41553,1.73472e-18,-1.73472e-18,0.867725,935.354,1134.4)">
            <g>
                <g transform="matrix(1.04372,-2.08656e-18,2.08656e-18,1.70262,-5.20138,-246.843)">
                    <g>
                        <path d="M426.777,86.991C426.777,73.756 416.032,63.011 402.797,63.011L67.073,63.011C53.838,63.011 43.093,73.756 43.093,86.991L43.093,422.715C43.093,435.95 53.838,446.695 67.073,446.695L402.797,446.695C416.032,446.695 426.777,435.95 426.777,422.715L426.777,86.991Z" style="fill:url(#_Linear1);"/>
                    </g>
                </g>
                <g transform="matrix(5.66097e-17,1.49476,-0.6647,6.58932e-17,362.199,-185.391)">
                    <g transform="matrix(5.31382e-17,-1.23023,0.892435,7.35454e-17,20.7184,500.13)">
                        <path d="M267.892,300.231C266.406,300.337 264.875,299.952 263.561,299.032L110.752,192.035C107.711,189.905 106.971,185.706 109.1,182.665L152.184,121.135C154.313,118.094 158.512,117.353 161.553,119.483L293.298,211.731L369.733,211.731C371.619,211.732 373.324,212.509 374.546,213.76C374.725,213.944 376.778,215.786 379.596,218.84L412.004,251.248C414.63,253.873 414.63,258.136 412.004,260.762L377.932,294.834L377.932,294.798C375.933,296.955 374.574,298.248 374.432,298.386C373.219,299.57 371.561,300.3 369.733,300.3L267.94,300.3L267.892,300.231Z" style="fill:rgb(136,217,217);"/>
                    </g>
                    <g transform="matrix(5.31382e-17,-1.23023,0.892435,7.35454e-17,20.7184,500.13)">
                        <path d="M267.913,211.771L267.94,211.731L369.733,211.731C371.561,211.732 373.219,212.462 374.432,213.646C374.575,213.785 375.96,215.102 377.99,217.297L377.99,217.234L412.004,251.248C414.63,253.873 414.63,258.136 412.004,260.762L379.848,292.918C376.901,296.135 374.731,298.083 374.546,298.271C373.324,299.523 371.619,300.3 369.733,300.3L293.252,300.3L161.553,392.517C158.512,394.647 154.313,393.906 152.184,390.865L109.1,329.335C106.971,326.294 107.711,322.095 110.752,319.965L263.561,212.968C264.881,212.043 266.42,211.66 267.913,211.771Z" style="fill:rgb(0,230,231);"/>
                    </g>
                </g>
            </g>
        </g>
    </g>
    <defs>
        <linearGradient id="_Linear1" x1="0" y1="0" x2="1" y2="0" gradientUnits="userSpaceOnUse" gradientTransform="matrix(2.02104e-14,330.061,-330.061,2.02104e-14,220.162,81.8001)"><stop offset="0" style="stop-color:rgb(77,77,77);stop-opacity:1"/><stop offset="1" style="stop-color:rgb(64,64,64);stop-opacity:1"/></linearGradient>
    </defs>
</svg>
