<?xml version="1.0" encoding="utf-8"?>
<!DOCTYPE svg PUBLIC "-//W3C//DTD SVG 1.1//EN" "http://www.w3.org/Graphics/SVG/1.1/DTD/svg11.dtd">
<svg version="1.1" id="svg3004" xmlns:svg="http://www.w3.org/2000/svg" xmlns="http://www.w3.org/2000/svg" x="0px" y="0px" width="554.312px" height="156.238px" viewBox="0 0 554.312 156.238" enable-background="new 0 0 554.312 156.238" xml:space="preserve">
<g id="g3012" transform="matrix(1.25,0,0,-1.25,0,156.2375)">
	<g id="g3018" transform="scale(0.1,0.1)">
		<path id="path3024" fill="#FFFFFF" d="M0,845.931h153.652l205.434-605.965h3.457 l196.812,605.965h120.844l193.355-605.965h3.457l214.066,605.965h143.293L933.984,20.716H811.41L616.328,626.685h-3.457 L412.602,20.716H286.594L0,845.931"/>
		<path id="path3026" fill="#FFFFFF" d="M1702.121,745.802 c-164,0-257.223-148.469-257.223-312.477c0-164,74.242-312.469,257.223-312.469c183,0,257.25,148.469,257.25,312.469 C1959.371,597.334,1885.121,745.802,1702.121,745.802z M1308.52,1249.912h141.559V742.353h3.453 c60.418,82.871,153.641,124.297,264.129,124.297c283.141,0,393.621-212.344,393.621-433.324 c0-220.969-100.133-433.328-405.703-433.328c-100.137,0-196.809,41.445-253.777,119.133h1.73h-3.453V20.716H1308.52v1229.191"/>
		<path id="path3028" fill="#FFFFFF" d="M2589.539,110.482 c203.703,0,252.039,186.469,252.039,322.844c0,136.391-48.336,322.84-252.039,322.84c-203.727,0-252.055-186.449-252.055-322.84 C2337.484,296.951,2385.812,110.482,2589.539,110.482z M2589.539,866.65c252.039,0,403.953-182.992,403.953-433.324 c0-250.328-151.914-433.328-403.953-433.328c-252.055,0-403.988,183-403.988,433.328 C2185.551,683.658,2337.484,866.65,2589.539,866.65"/>
		<path id="path3030" fill="#FFFFFF" d="M4040.828,120.857c183,0,257.242,148.469,257.242,312.469 c0,164.008-93.227,312.477-257.242,312.477c-182.984,0-257.219-148.469-257.219-312.477 C3783.609,269.326,3857.844,120.857,4040.828,120.857L4040.828,120.857z M4434.461,20.716h-141.57v98.414h-3.453h1.734 C4234.188,41.443,4137.508-0.002,4037.383-0.002c-305.586,0-405.703,212.359-405.703,433.328 c0,220.98,110.492,433.324,393.617,433.324c110.492,0,203.711-41.426,264.141-124.297h3.453v507.555h141.57V20.716"/>
		<path id="path3032" fill="#FFFFFF" d="M3257.547,866.65 c-106.156,0-186.844-47.555-240.375-129.184c-0.273-0.414-4.289-6.832-9.125-16.18c12.656-27.625,23.242-56.809,31.906-87.262 l0.477-0.797c36.312,64.562,105.398,102.211,192.953,102.211c100.133,0,174.367-43.156,174.367-184.707V20.716h141.562v543.828 C3549.312,794.146,3423.289,866.65,3257.547,866.65"/>
	</g>
</g>
</svg>
