<?xml version="1.0" encoding="UTF-8" standalone="no"?>
<!-- Created with Inkscape (http://www.inkscape.org/) -->

<svg
   xmlns:dc="http://purl.org/dc/elements/1.1/"
   xmlns:cc="http://creativecommons.org/ns#"
   xmlns:rdf="http://www.w3.org/1999/02/22-rdf-syntax-ns#"
   xmlns:svg="http://www.w3.org/2000/svg"
   xmlns="http://www.w3.org/2000/svg"
   xmlns:sodipodi="http://sodipodi.sourceforge.net/DTD/sodipodi-0.dtd"
   xmlns:inkscape="http://www.inkscape.org/namespaces/inkscape"
   id="svg3004"
   version="1.1"
   inkscape:version="0.48.4 r9939"
   width="554.3125"
   height="156.2375"
   xml:space="preserve"
   sodipodi:docname="wbond.svg"><metadata
     id="metadata3010"><rdf:RDF><cc:Work
         rdf:about=""><dc:format>image/svg+xml</dc:format><dc:type
           rdf:resource="http://purl.org/dc/dcmitype/StillImage" /><dc:title /></cc:Work></rdf:RDF></metadata><defs
     id="defs3008" /><sodipodi:namedview
     pagecolor="#ffffff"
     bordercolor="#666666"
     borderopacity="1"
     objecttolerance="10"
     gridtolerance="10"
     guidetolerance="10"
     inkscape:pageopacity="0"
     inkscape:pageshadow="2"
     inkscape:window-width="1086"
     inkscape:window-height="762"
     id="namedview3006"
     showgrid="false"
     inkscape:zoom="1.1112865"
     inkscape:cx="79.642779"
     inkscape:cy="153.49017"
     inkscape:window-x="0"
     inkscape:window-y="27"
     inkscape:window-maximized="0"
     inkscape:current-layer="g3018" /><g
     id="g3012"
     inkscape:groupmode="layer"
     inkscape:label="ink_ext_XXXXXX"
     transform="matrix(1.25,0,0,-1.25,0,156.2375)"><g
       id="g3018"
       clip-path="none"
       transform="scale(0.1,0.1)"><path
         d="m 0,845.93 153.652,0 205.434,-605.961 3.457,0 196.812,605.961 120.844,0 193.356,-605.961 3.457,0 214.068,605.961 143.29,0 -300.386,-825.2112 -122.574,0 -195.082,605.9652 -3.457,0 -200.269,-605.9652 -126.008,0 L 0,845.93"
         style="fill:#ffffff;fill-opacity:1;fill-rule:nonzero;stroke:none"
         id="path3024"
         inkscape:connector-curvature="0" /><path
         d="m 1702.12,745.801 c -164,0 -257.22,-148.469 -257.22,-312.473 0,-164.004 74.24,-312.469 257.22,-312.469 183,0 257.25,148.465 257.25,312.469 0,164.004 -74.25,312.473 -257.25,312.473 z m -393.6,504.109 141.56,0 0,-507.555 3.45,0 c 60.42,82.868 153.64,124.297 264.13,124.297 283.14,0 393.62,-212.347 393.62,-433.324 C 2111.28,212.352 2011.15,0 1705.58,0 1605.44,0 1508.77,41.4414 1451.8,119.129 l 1.73,0 -3.45,0 0,-98.4102 -141.56,0 0,1229.1912"
         style="fill:#ffffff;fill-opacity:1;fill-rule:nonzero;stroke:none"
         id="path3026"
         inkscape:connector-curvature="0" /><path
         d="m 2589.54,110.488 c 203.7,0 252.04,186.457 252.04,322.84 0,136.383 -48.34,322.836 -252.04,322.836 -203.73,0 -252.06,-186.453 -252.06,-322.836 0,-136.383 48.33,-322.84 252.06,-322.84 z m 0,756.164 c 252.04,0 403.95,-182.996 403.95,-433.324 C 2993.49,183 2841.58,0 2589.54,0 c -252.06,0 -403.99,183 -403.99,433.328 0,250.328 151.93,433.324 403.99,433.324"
         style="fill:#ffffff;fill-opacity:1;fill-rule:nonzero;stroke:none"
         id="path3028"
         inkscape:connector-curvature="0" /><path
         d="m 4040.83,120.859 c 183,0 257.24,148.465 257.24,312.469 0,164.004 -93.23,312.473 -257.24,312.473 -182.99,0 -257.22,-148.469 -257.22,-312.473 0,-164.004 74.23,-312.469 257.22,-312.469 z m 393.63,-100.1402 -141.57,0 0,98.4102 -3.45,0 1.73,0 C 4234.19,41.4414 4137.51,0 4037.38,0 c -305.58,0 -405.7,212.352 -405.7,433.328 0,220.977 110.49,433.324 393.62,433.324 110.49,0 203.71,-41.429 264.14,-124.297 l 3.45,0 0,507.555 141.57,0 0,-1229.1912"
         style="fill:#ffffff;fill-opacity:1;fill-rule:nonzero;stroke:none"
         id="path3030"
         inkscape:connector-curvature="0" /><path
         d="m 3257.55,866.652 c -106.16,0 -186.85,-47.558 -240.38,-129.187 -0.27,-0.414 -4.29,-6.832 -9.12,-16.18 12.65,-27.625 23.24,-56.808 31.9,-87.258 l 0.48,-0.797 c 36.31,64.559 105.4,102.211 192.95,102.211 100.14,0 174.37,-43.16 174.37,-184.711 l 0,-530.0112 141.56,0 0,543.8202 c 0,229.606 -126.02,302.113 -291.76,302.113"
         style="fill:#ffffff;fill-opacity:1;fill-rule:nonzero;stroke:none"
         id="path3032"
         inkscape:connector-curvature="0" /></g></g></svg>